name Walk5.mot
datacolumns 19
datarows 30
range 1.61800000 1.64700000
endheader

                time	   L_ground_force_vx	   L_ground_force_vy	   L_ground_force_vz	   L_ground_force_px	   L_ground_force_py	   L_ground_force_pz	   R_ground_force_vx	   R_ground_force_vy	   R_ground_force_vz	   R_ground_force_px	   R_ground_force_py	   R_ground_force_pz	   L_ground_torque_x	   L_ground_torque_y	   L_ground_torque_z	   R_ground_torque_x	   R_ground_torque_y	   R_ground_torque_z	
          1.61800000	         27.25452511	        527.27579854	         36.50643368	         -0.30597603	          0.00000000	         -0.09156009	         -0.00419263	          0.21997989	          0.01060418	          0.00015547	          0.00000000	          0.00006525	          0.00000000	         -0.02744363	          0.00000000	          0.00000000	          0.00008174	          0.00000000	
          1.61900000	         27.36794005	        528.92788946	         36.61187712	         -0.30542683	          0.00000000	         -0.09168695	         -0.00534693	          0.23176412	          0.01075202	          0.00016198	          0.00000000	          0.00006788	          0.00000000	         -0.03175251	          0.00000000	          0.00000000	          0.00010335	          0.00000000	
          1.62000000	         27.48393758	        530.60585536	         36.71785277	         -0.30488044	          0.00000000	         -0.09181255	         -0.00658642	          0.24368622	          0.01086920	          0.00016843	          0.00000000	          0.00007048	          0.00000000	         -0.03627532	          0.00000000	          0.00000000	          0.00012654	          0.00000000	
          1.62100000	         27.60268199	        532.30959875	         36.82440564	         -0.30433696	          0.00000000	         -0.09193687	         -0.00791389	          0.25570979	          0.01095237	          0.00017479	          0.00000000	          0.00007302	          0.00000000	         -0.04101069	          0.00000000	          0.00000000	          0.00015136	          0.00000000	
          1.62200000	         27.72434067	        534.03900212	         36.93158042	         -0.30379649	          0.00000000	         -0.09205987	         -0.00933202	          0.26779459	          0.01099805	          0.00018101	          0.00000000	          0.00007550	          0.00000000	         -0.04595615	          0.00000000	          0.00000000	          0.00017786	          0.00000000	
          1.62300000	         27.84908434	        535.79392687	         37.03942243	         -0.30325912	          0.00000000	         -0.09218154	         -0.01084340	          0.27989641	          0.01100254	          0.00018706	          0.00000000	          0.00007790	          0.00000000	         -0.05110798	          0.00000000	          0.00000000	          0.00020609	          0.00000000	
          1.62400000	         27.97708717	        537.57421278	         37.14797880	         -0.30272497	          0.00000000	         -0.09230185	         -0.01245044	          0.29196684	          0.01096202	          0.00019290	          0.00000000	          0.00008020	          0.00000000	         -0.05646131	          0.00000000	          0.00000000	          0.00023609	          0.00000000	
          1.62500000	         28.10852663	        539.37967737	         37.25729948	         -0.30219413	          0.00000000	         -0.09242077	         -0.01415540	          0.30395312	          0.01087246	          0.00019849	          0.00000000	          0.00008238	          0.00000000	         -0.06201018	          0.00000000	          0.00000000	          0.00026791	          0.00000000	
          1.62600000	         28.24358332	        541.21011498	         37.36743791	         -0.30166669	          0.00000000	         -0.09253830	         -0.01596033	          0.31579792	          0.01072967	          0.00020377	          0.00000000	          0.00008443	          0.00000000	         -0.06774780	          0.00000000	          0.00000000	          0.00030157	          0.00000000	
          1.62700000	         28.38244075	        543.06529555	         37.47845127	         -0.30114275	          0.00000000	         -0.09265442	         -0.01786706	          0.32743919	          0.01052930	          0.00020871	          0.00000000	          0.00008631	          0.00000000	         -0.07366680	          0.00000000	          0.00000000	          0.00033712	          0.00000000	
          1.62800000	         28.52528524	        544.94496364	         37.59040026	         -0.30062239	          0.00000000	         -0.09276912	         -0.01987719	          0.33880992	          0.01026683	          0.00021324	          0.00000000	          0.00008802	          0.00000000	         -0.07975948	          0.00000000	          0.00000000	          0.00037458	          0.00000000	
          1.62900000	         28.67230570	        546.84883791	         37.70334867	         -0.30010570	          0.00000000	         -0.09288242	         -0.02199202	          0.34983803	          0.00993757	          0.00021732	          0.00000000	          0.00008952	          0.00000000	         -0.08601790	          0.00000000	          0.00000000	          0.00041398	          0.00000000	
          1.63000000	         28.82369337	        548.77661109	         37.81736267	         -0.29959276	          0.00000000	         -0.09299431	         -0.02421255	          0.36044613	          0.00953666	          0.00022087	          0.00000000	          0.00009079	          0.00000000	         -0.09243391	          0.00000000	          0.00000000	          0.00045532	          0.00000000	
          1.63100000	         28.97964121	        550.72795000	         37.93251012	         -0.29908367	          0.00000000	         -0.09310478	         -0.02653942	          0.37055137	          0.00905912	          0.00022385	          0.00000000	          0.00009180	          0.00000000	         -0.09899902	          0.00000000	          0.00000000	          0.00049863	          0.00000000	
          1.63200000	         29.14034315	        552.70249545	         38.04885977	         -0.29857849	          0.00000000	         -0.09321384	         -0.02897291	          0.38006531	          0.00849979	          0.00022617	          0.00000000	          0.00009252	          0.00000000	         -0.10570424	          0.00000000	          0.00000000	          0.00054390	          0.00000000	
          1.63300000	         29.30599320	        554.69986182	         38.16648052	         -0.29807732	          0.00000000	         -0.09332149	         -0.03151288	          0.38889369	          0.00785338	          0.00022778	          0.00000000	          0.00009294	          0.00000000	         -0.11254022	          0.00000000	          0.00000000	          0.00059113	          0.00000000	
          1.63400000	         29.47678449	        556.71963666	         38.28544082	         -0.29758022	          0.00000000	         -0.09342770	         -0.03415874	          0.39693635	          0.00711447	          0.00022859	          0.00000000	          0.00009300	          0.00000000	         -0.11949739	          0.00000000	          0.00000000	          0.00064031	          0.00000000	
          1.63500000	         29.65290830	        558.76138059	         38.40580820	         -0.29708727	          0.00000000	         -0.09353248	         -0.03690938	          0.40408706	          0.00627751	          0.00022854	          0.00000000	          0.00009269	          0.00000000	         -0.12656642	          0.00000000	          0.00000000	          0.00069141	          0.00000000	
          1.63600000	         29.83455324	        560.82462762	         38.52764895	         -0.29659854	          0.00000000	         -0.09363580	         -0.03976320	          0.41023341	          0.00533686	          0.00022754	          0.00000000	          0.00009197	          0.00000000	         -0.13373855	          0.00000000	          0.00000000	          0.00074441	          0.00000000	
          1.63700000	         30.02190470	        562.90888569	         38.65102792	         -0.29611409	          0.00000000	         -0.09373766	         -0.04271798	          0.41525669	          0.00428675	          0.00022550	          0.00000000	          0.00009080	          0.00000000	         -0.14100578	          0.00000000	          0.00000000	          0.00079926	          0.00000000	
          1.63800000	         30.21514452	        565.01363762	         38.77600835	         -0.29563401	          0.00000000	         -0.09383804	         -0.04577092	          0.41903178	          0.00312136	          0.00022235	          0.00000000	          0.00008915	          0.00000000	         -0.14836083	          0.00000000	          0.00000000	          0.00085591	          0.00000000	
          1.63900000	         30.41445089	        567.13834214	         38.90265174	         -0.29515835	          0.00000000	         -0.09393692	         -0.04891853	          0.42142710	          0.00183478	          0.00021798	          0.00000000	          0.00008697	          0.00000000	         -0.15579695	          0.00000000	          0.00000000	          0.00091428	          0.00000000	
          1.64000000	         30.61999837	        569.28243498	         39.03101756	         -0.29468719	          0.00000000	         -0.09403430	         -0.05215660	          0.42230456	          0.00042107	          0.00021231	          0.00000000	          0.00008424	          0.00000000	         -0.16330763	          0.00000000	          0.00000000	          0.00097430	          0.00000000	
          1.64100000	         30.83195792	        571.44532987	         39.16116285	         -0.29422059	          0.00000000	         -0.09413015	         -0.05548016	          0.42151948	         -0.00112575	          0.00020524	          0.00000000	          0.00008090	          0.00000000	         -0.17088630	          0.00000000	          0.00000000	          0.00103588	          0.00000000	
          1.64200000	         31.05049693	        573.62641900	         39.29314172	         -0.29375863	          0.00000000	         -0.09422448	         -0.05888344	          0.41892060	         -0.00281166	          0.00019666	          0.00000000	          0.00007691	          0.00000000	         -0.17852612	          0.00000000	          0.00000000	          0.00109890	          0.00000000	
          1.64300000	         31.27577923	        575.82507320	         39.42700501	         -0.29330138	          0.00000000	         -0.09431727	         -0.06235978	          0.41435012	         -0.00464262	          0.00018647	          0.00000000	          0.00007224	          0.00000000	         -0.18621983	          0.00000000	          0.00000000	          0.00116324	          0.00000000	
          1.64400000	         31.50796487	        578.04064178	         39.56280004	         -0.29284891	          0.00000000	         -0.09440851	         -0.06590162	          0.40764370	         -0.00662454	          0.00017456	          0.00000000	          0.00006684	          0.00000000	         -0.19395976	          0.00000000	          0.00000000	          0.00122875	          0.00000000	
          1.64500000	         31.74720988	        580.27245246	         39.70057052	         -0.29240129	          0.00000000	         -0.09449821	         -0.06950043	          0.39863055	         -0.00876328	          0.00016082	          0.00000000	          0.00006066	          0.00000000	         -0.20173794	          0.00000000	          0.00000000	          0.00129527	          0.00000000	
          1.64600000	         31.99366597	        582.51981133	         39.84035643	         -0.29195858	          0.00000000	         -0.09458635	         -0.07314662	          0.38713355	         -0.01106457	          0.00014515	          0.00000000	          0.00005365	          0.00000000	         -0.20954646	          0.00000000	          0.00000000	          0.00136263	          0.00000000	
          1.64700000	         32.24748063	        584.78200297	         39.98219380	         -0.29152085	          0.00000000	         -0.09467295	         -0.07682954	          0.37296936	         -0.01353401	          0.00012742	          0.00000000	          0.00004577	          0.00000000	         -0.21737774	          0.00000000	          0.00000000	          0.00143062	          0.00000000	
